<svg width="120" height="120" viewBox="0 0 120 120" fill="none" xmlns="http://www.w3.org/2000/svg">
  <defs>
    <linearGradient id="g" x1="10" y1="10" x2="110" y2="110" gradientUnits="userSpaceOnUse">
      <stop stop-color="#78F0E8"/>
      <stop offset="1" stop-color="#149C95"/>
    </linearGradient>
  </defs>
  <rect width="120" height="120" rx="18" fill="#04070D"/>
  <g stroke="url(#g)" stroke-width="5.5" stroke-linecap="round" stroke-linejoin="round">
    <path d="M55 24H33C24.2 24 17 31.2 17 40V80C17 88.8 24.2 96 33 96H55"/>
    <path d="M56 34H36C30.5 34 26 38.5 26 44V76C26 81.5 30.5 86 36 86H56"/>
    <path d="M56 44H42C38.7 44 36 46.7 36 50V70C36 73.3 38.7 76 42 76H56"/>
    <path d="M64 24V96"/>
    <path d="M84 24V96"/>
    <path d="M104 24V96"/>
    <path d="M56 60H106"/>
    <path d="M56 69H98"/>
  </g>
</svg>
